<svg version="1.1" id="Layer_1" xmlns="http://www.w3.org/2000/svg" xmlns:xlink="http://www.w3.org/1999/xlink" viewBox="0 0 1254 1254">
<path fill="#012380" opacity="1.000000" stroke="none" 
	d="
M1.000000,485.000000 
	C1.000000,323.333344 1.000000,162.166672 1.000000,1.000000 
	C419.000000,1.000000 837.000000,1.000000 1255.000000,1.000000 
	C1255.000000,419.000000 1255.000000,837.000000 1255.000000,1255.000000 
	C837.000000,1255.000000 419.000000,1255.000000 1.000000,1255.000000 
	C1.000000,998.500000 1.000000,742.000000 1.000000,485.000000 
M827.296326,654.862976 
	C827.076965,655.175171 826.857544,655.487427 826.817932,655.795166 
	C826.817932,655.795166 826.778687,655.619568 826.175964,655.816101 
	C825.425354,656.530762 824.674805,657.245483 823.986389,657.987244 
	C823.986389,657.987244 823.982544,657.919556 823.438904,658.066040 
	C823.215942,658.356750 822.992981,658.647461 822.385620,658.974060 
	C822.114075,659.065735 821.952820,659.252625 821.293396,659.781982 
	C820.499329,660.496643 819.705261,661.211243 818.995117,661.994202 
	C818.995117,661.994202 818.927917,661.909363 818.462585,661.968811 
	C818.462585,661.968811 817.994324,662.006653 817.827148,661.310913 
	C813.413696,656.128479 814.249451,652.380066 819.884766,648.908875 
	C822.219971,647.470337 824.025513,644.942505 825.621338,642.602783 
	C827.002502,640.577881 827.432617,637.901489 828.825012,635.887634 
	C835.824829,625.763672 843.331604,615.976074 850.025635,605.658569 
	C856.801697,595.214539 867.539673,590.195801 877.494446,584.040649 
	C884.658630,579.611023 892.389404,576.006775 899.178711,571.084412 
	C908.096619,564.618835 915.508972,556.580139 920.718567,546.599243 
	C926.536682,535.452637 926.172607,524.111389 921.477051,513.108154 
	C918.000793,504.962158 918.892822,499.030396 926.380005,494.361206 
	C929.608215,492.348022 932.883606,490.360260 935.869873,488.019409 
	C943.329407,482.171967 949.600403,475.553406 951.046509,465.475830 
	C951.524658,462.143555 952.889343,458.647736 954.781982,455.860413 
	C962.268982,444.834412 961.533203,432.772766 958.616394,420.967255 
	C957.502136,416.457520 952.458130,413.013123 949.584351,408.823029 
	C944.477295,401.376740 938.796204,394.553650 931.118713,389.619843 
	C928.490356,387.930786 925.714355,386.455719 923.179077,384.640900 
	C917.381653,380.490967 911.490845,376.431854 906.025024,371.871857 
	C902.134949,368.626495 897.162598,366.451233 896.301941,360.076324 
	C895.167847,351.675629 889.672974,344.425629 883.563477,339.894043 
	C871.294739,330.794098 858.384705,321.807434 842.057312,320.884247 
	C838.647400,320.691467 836.234924,318.875488 835.891296,314.917969 
	C835.494629,310.350159 834.730286,305.812683 834.077271,301.268982 
	C831.906982,286.167633 825.933960,280.338898 810.883423,278.128723 
	C800.948975,276.669861 791.113403,274.264374 781.138000,273.442322 
	C772.796204,272.754852 764.274109,273.323669 755.910156,274.139008 
	C749.567017,274.757324 743.380371,276.845276 737.057495,277.867279 
	C734.093933,278.346283 734.093933,278.346283 734.093933,278.346283 
	C740.030090,285.275513 741.030212,286.165039 741.030212,286.165039 
z"/>
<path fill="#E20B0A" opacity="1.000000" stroke="none" 
	d="
M641.303955,896.521240 
	C638.741028,896.615479 636.178040,896.709778 633.023926,896.330811 
	C630.982605,880.832458 630.315674,865.682373 627.942383,850.804565 
	C619.160461,795.752014 590.170410,752.659729 547.653320,717.490173 
	C539.179138,708.879761 530.693604,700.652771 522.387634,692.248230 
	C497.867462,667.437073 474.572998,641.590393 456.095551,611.809570 
	C438.126465,582.848022 426.345947,552.040466 431.052490,517.213562 
	C436.478333,477.064240 457.083221,447.248108 494.609283,430.988281 
	C538.811707,411.835602 590.943237,425.247162 621.592712,462.696594 
	C627.422424,469.819733 632.409485,477.632507 637.848145,485.214630 
	C638.860596,483.414612 639.909912,481.533081 640.973877,479.659882 
	C668.243896,431.649872 726.865479,409.882355 776.479370,429.636597 
	C828.703003,450.430023 855.040710,507.451538 839.608093,564.104126 
	C831.570251,593.610352 815.228699,618.614746 796.631775,642.346436 
	C775.388611,669.455017 750.771545,693.377014 725.638062,717.209534 
	C722.503906,720.173645 719.674805,723.025635 716.870239,725.923096 
	C716.894836,725.968506 716.985779,725.919617 716.702271,725.982422 
	C716.180115,726.344421 715.941528,726.643677 715.430054,727.085083 
	C713.749268,728.706055 712.341370,730.184998 710.683594,731.821167 
	C710.252441,732.315308 710.071167,732.652344 709.943481,732.977051 
	C709.997070,732.964783 709.969666,732.858215 709.697876,732.942078 
	C709.237976,733.340942 709.049805,733.655884 708.918335,733.969238 
	C708.975037,733.967651 708.966370,733.854492 708.692871,733.935913 
	C708.232788,734.335205 708.046204,734.653076 707.913879,734.982544 
	C707.968140,734.994263 707.988647,734.885132 707.686462,734.959229 
	C707.102966,735.334595 706.821716,735.635864 706.296997,736.053467 
	C705.344421,736.971191 704.635254,737.772522 703.673889,738.748169 
	C703.244934,739.278625 703.068176,739.634827 702.942749,739.985779 
	C702.994080,739.980591 702.981445,739.878113 702.700439,739.955688 
	C702.183411,740.335693 701.947449,740.638184 701.427490,741.099731 
	C693.499756,750.864624 685.147217,759.995911 678.341553,770.162781 
	C655.523376,804.250549 644.198059,842.203430 642.040283,883.451538 
	C641.741150,888.084351 641.522522,892.302795 641.303955,896.521240 
z"/>
<path fill="#E07C2B" opacity="1.000000" stroke="none" 
	d="
M547.723999,717.792419 
	C590.170410,752.659729 619.160461,795.752014 627.942383,850.804565 
	C630.315674,865.682373 630.982605,880.832458 632.487183,896.233154 
	C617.588745,896.713135 602.636047,896.883911 587.683105,896.905334 
	C568.397705,896.933044 549.112244,896.841248 529.339844,896.316162 
	C522.848267,865.046692 506.600433,841.378479 478.747345,826.767090 
	C463.153748,818.586792 446.571198,812.304749 430.513184,804.994080 
	C398.402008,790.375000 368.418915,772.190552 340.324951,750.858398 
	C334.963165,746.787170 329.426025,742.946838 323.969788,739.000000 
	C323.969788,739.000000 324.008118,738.995667 324.021851,738.698120 
	C323.649384,737.936584 323.263153,737.472595 322.876923,737.008606 
	C322.876923,737.008606 322.972076,736.989380 322.846069,736.797485 
	C322.428040,736.386902 322.135956,736.168152 321.843872,735.949402 
	C314.036438,722.813782 305.099091,710.209473 298.626526,696.446106 
	C276.255341,648.875916 261.531982,598.807068 252.663803,547.033386 
	C251.378342,539.528687 251.091873,531.801025 250.952896,524.165405 
	C250.793655,515.416626 253.874557,507.870178 262.462616,504.295471 
	C271.576385,500.501892 280.153687,502.354095 287.532776,508.892883 
	C289.752411,510.859802 291.506592,513.351990 293.784241,516.175415 
	C296.001434,520.817078 298.166168,524.787781 299.774811,528.972290 
	C312.914368,563.151733 325.997437,597.353149 338.953552,631.602417 
	C340.459869,635.584351 341.182007,639.877625 342.106079,644.062256 
	C344.603363,655.371399 349.027252,665.473389 358.344360,673.054565 
	C372.797028,684.814453 387.001312,696.879089 401.368164,708.745239 
	C411.758881,717.327393 422.224640,725.819031 432.696106,734.302734 
	C435.594055,736.650574 438.938934,737.372314 441.560516,734.297791 
	C444.051361,731.376465 442.941315,728.417297 440.087067,726.060486 
	C418.535461,708.264221 397.011414,690.434570 375.439392,672.663086 
	C367.583893,666.191589 359.641968,659.901184 355.858368,649.870239 
	C352.198975,640.168579 354.173187,631.296509 359.094604,622.697998 
	C375.992889,611.871704 389.684021,612.545410 405.445770,625.759827 
	C415.519867,634.205811 424.606354,643.857056 434.889160,652.018677 
	C444.492462,659.640808 455.090454,666.009766 465.818542,673.252197 
	C472.506012,676.456665 478.625519,679.339294 484.751892,682.209717 
	C484.758759,682.197571 484.783020,682.187683 484.993286,682.479492 
	C486.122437,683.051086 487.041321,683.330872 488.194489,683.827942 
	C492.250488,685.740417 496.072235,687.435547 500.100372,689.358887 
	C501.077637,689.859558 501.848480,690.132019 502.824280,690.613037 
	C503.575348,691.017578 504.121490,691.213440 504.885620,691.647339 
	C506.063202,692.282715 507.022736,692.679932 507.988190,693.044678 
	C507.994080,693.012207 507.931854,693.034180 508.052307,693.331055 
	C508.784149,693.774780 509.395508,693.921631 510.000183,694.036377 
	C509.993530,694.004272 509.935150,694.033936 510.100342,694.351685 
	C511.178833,694.805237 512.092163,694.940979 513.003906,695.039307 
	C513.002258,695.002014 512.927551,695.005066 512.931824,695.326294 
	C513.296082,695.873474 513.656128,696.099487 514.217651,696.580627 
	C519.975586,700.041992 525.531921,703.248169 531.383789,706.559448 
	C537.027527,710.373779 542.375793,714.083130 547.723999,717.792419 
z"/>
<path fill="#F5B065" opacity="1.000000" stroke="none" 
	d="
M710.933472,731.663940 
	C712.341370,730.184998 713.749268,728.706055 715.689209,726.975952 
	C716.476074,726.456421 716.730896,726.187988 716.985718,725.919556 
	C716.985779,725.919617 716.894836,725.968506 717.320801,725.968628 
	C727.543457,726.048035 736.178589,722.063416 743.117615,715.977112 
	C751.373718,708.735535 761.557129,703.526123 767.570557,693.701172 
	C768.626343,691.976257 771.478088,691.329773 773.528687,690.238464 
	C779.527344,687.046265 785.573486,683.940796 791.515442,680.646790 
	C792.517578,680.091187 793.093750,678.767212 793.891907,677.845337 
	C793.917053,677.892456 793.817993,677.852417 794.204468,677.883484 
	C797.737549,675.963196 800.884277,674.011780 804.028198,672.027954 
	C804.025391,671.995544 804.073669,672.039246 804.362122,671.988464 
	C805.089844,671.582581 805.529114,671.227417 805.961426,670.909302 
	C805.954529,670.946228 805.884155,670.919800 806.241516,670.930664 
	C807.380371,670.267517 808.161865,669.593506 808.967529,668.957886 
	C808.991638,668.996399 808.922058,668.937988 809.291504,668.945923 
	C811.410767,667.589111 813.160583,666.224304 814.930420,664.903687 
	C814.950439,664.947937 814.863953,664.903870 815.186768,664.880249 
	C815.912292,664.414185 816.315063,663.971741 816.714478,663.589783 
	C816.711060,663.650269 816.606934,663.588257 816.949097,663.648132 
	C817.836792,663.108459 818.382324,662.508911 818.927856,661.909363 
	C818.927917,661.909363 818.995117,661.994202 819.302002,661.930664 
	C820.373291,661.089661 821.137634,660.312195 821.901978,659.534729 
	C821.952820,659.252625 822.114075,659.065735 822.827148,658.848328 
	C823.506653,658.454895 823.744629,658.187256 823.982544,657.919556 
	C823.982544,657.919556 823.986389,657.987244 824.295288,657.943359 
	C825.328979,657.139465 826.053833,656.379456 826.778687,655.619507 
	C826.778687,655.619568 826.817932,655.795166 827.007812,655.710083 
	C827.419617,655.316772 827.641602,655.008545 827.863525,654.700317 
	C827.863525,654.700317 827.879089,654.871582 828.059814,654.768311 
	C828.466858,654.370789 828.693176,654.076660 828.919556,653.782532 
	C828.919556,653.782532 828.927612,653.924744 829.109436,653.808289 
	C829.507935,653.400146 829.724609,653.108521 829.941284,652.816895 
	C829.941284,652.816895 829.947754,652.946106 830.126709,652.834473 
	C830.531616,652.454529 830.757629,652.186218 830.983582,651.917908 
	C830.983582,651.917908 830.986389,651.987915 831.176270,651.865112 
	C831.573792,651.478455 831.781555,651.214661 831.989258,650.950806 
	C831.989258,650.950806 832.002075,651.001526 832.290710,650.940063 
	C832.894287,650.401855 833.209167,649.925049 833.524048,649.448242 
	C833.524109,649.448242 833.603577,649.526001 833.846680,649.513916 
	C834.268738,649.173157 834.447754,648.844543 834.626709,648.515869 
	C834.626709,648.515869 834.680176,648.656067 834.901611,648.603760 
	C835.333618,648.231384 835.544128,647.911377 835.754639,647.591370 
	C835.754639,647.591370 835.787415,647.773193 835.980347,647.687988 
	C836.390869,647.287842 836.608337,646.972839 836.825806,646.657776 
	C836.825806,646.657776 836.846375,646.843628 837.027710,646.735107 
	C837.415222,646.306213 837.621399,645.985718 837.827637,645.665222 
	C837.827576,645.665222 837.845947,645.849060 838.027710,645.738831 
	C838.417236,645.309692 838.625061,644.990784 838.832886,644.671814 
	C838.832886,644.671814 838.851868,644.851379 839.033691,644.743286 
	C839.428223,644.322449 839.640930,644.009705 839.853760,643.696899 
	C839.853760,643.696960 839.869324,643.870728 840.049988,643.756348 
	C840.440491,643.328674 840.650391,643.015442 840.860291,642.702271 
	C840.860291,642.702271 840.886719,642.885193 841.068604,642.756226 
	C841.468445,642.295776 841.686279,641.964294 841.904175,641.632812 
	C848.893616,635.318176 855.395630,628.329163 862.984192,622.843384 
	C875.035645,614.131470 889.619812,614.630920 900.890503,623.415833 
	C906.968933,629.380920 908.121826,636.342712 907.539124,643.672485 
	C906.640442,654.976196 899.982666,662.964233 891.674866,669.842834 
	C869.092102,688.540771 846.499695,707.227173 823.875122,725.874390 
	C819.028381,729.869080 817.620605,733.357971 820.041199,736.163147 
	C822.482239,738.992065 826.025024,738.417114 830.964905,734.367737 
	C854.412231,715.147522 877.888733,695.962646 901.285706,676.681274 
	C910.321533,669.234985 916.288269,659.790405 918.621643,648.228516 
	C919.276794,644.982117 919.055969,641.474121 920.153748,638.415161 
	C929.381042,612.701599 938.747375,587.037109 948.226318,561.414978 
	C953.767883,546.435608 959.591614,531.560669 965.288330,516.638733 
	C967.236633,514.370056 969.033325,511.946777 971.160889,509.860931 
	C978.231506,502.928833 986.704041,500.634064 995.958984,504.168732 
	C1004.939392,507.598541 1008.514648,515.534851 1007.646973,524.318726 
	C1006.113342,539.845032 1004.215210,555.449463 1000.832764,570.657043 
	C991.932068,610.675049 981.195801,650.267578 964.617920,687.868225 
	C957.399536,704.240417 947.698669,719.518188 938.680786,735.682434 
	C937.940430,736.290588 937.814819,736.582520 937.859619,736.947571 
	C937.859619,736.947571 937.951843,736.895325 937.588013,736.932617 
	C931.591858,741.891174 926.116272,747.006653 920.301392,751.701904 
	C886.505310,778.990906 849.046692,800.035034 808.705505,815.872009 
	C780.936157,826.773682 756.574890,841.672424 741.030212,868.165039 
	C740.703430,868.422058 740.534790,868.840271 740.332397,869.262817 
	C740.298645,869.267029 740.304810,869.199219 739.955322,869.287598 
	C736.719177,876.355469 733.752014,883.303223 730.991577,890.332214 
	C730.075623,892.664368 729.891113,895.069458 726.357910,895.056335 
	C699.884949,894.958191 673.411316,894.968994 646.938171,895.042114 
	C643.806091,895.050781 642.940674,893.706177 642.941223,890.822144 
	C642.941772,888.227234 642.415039,885.632202 642.120850,883.037231 
	C644.198059,842.203430 655.523376,804.250549 678.341553,770.162781 
	C685.147217,759.995911 693.499756,750.864624 701.685181,740.982300 
	C702.478271,740.429810 702.729858,740.153992 702.981445,739.878113 
	C702.981445,739.878113 702.994080,739.980591 703.178345,739.801758 
	C703.550415,739.273193 703.738281,738.923523 703.926147,738.573853 
	C704.635254,737.772522 705.344421,736.971191 706.584351,735.944092 
	C707.406372,735.440674 707.697510,735.162903 707.988647,734.885132 
	C707.988647,734.885132 707.968140,734.994263 708.145569,734.847351 
	C708.537476,734.418457 708.751892,734.136475 708.966309,733.854492 
	C708.966309,733.854492 708.975037,733.967651 709.149963,733.834656 
	C709.539856,733.420532 709.754761,733.139404 709.969666,732.858215 
	C709.969666,732.858215 709.997070,732.964783 710.175293,732.806763 
	C710.546814,732.320496 710.740112,731.992188 710.933472,731.663940 
z"/>
</svg>
