<svg xmlns="http://www.w3.org/2000/svg" viewBox="0 0 100 100">
  <!-- Fondo Azul Rey de la bandera de Venezuela -->
  <rect width="100" height="100" rx="20" fill="#002f87" />

  <g transform="translate(0, 2)">
    <!-- 8 Estrellas Amarillas en un arco perfecto -->
    <g fill="#fdc82f">
      <!-- Estrella 1 -->
      <polygon points="19,26 19.6,27.5 21.2,27.7 20,28.8 20.4,30.4 19,29.6 17.6,30.4 18,28.8 16.8,27.7 18.4,27.5" />
      <!-- Estrella 2 -->
      <polygon points="26,20 26.6,21.5 28.2,21.7 27,22.8 27.4,24.4 26,23.6 24.6,24.4 25,22.8 23.8,21.7 25.4,21.5" />
      <!-- Estrella 3 -->
      <polygon points="35,15 35.6,16.5 37.2,16.7 36,17.8 36.4,19.4 35,18.6 33.6,19.4 34,17.8 32.8,16.7 34.4,16.5" />
      <!-- Estrella 4 -->
      <polygon points="45,12 45.6,13.5 47.2,13.7 46,14.8 46.4,16.4 45,15.6 43.6,16.4 44,14.8 42.8,13.7 44.4,13.5" />
      <!-- Estrella 5 -->
      <polygon points="55,12 55.6,13.5 57.2,13.7 56,14.8 56.4,16.4 55,15.6 53.6,16.4 54,14.8 52.8,13.7 54.4,13.5" />
      <!-- Estrella 6 -->
      <polygon points="65,15 65.6,16.5 67.2,16.7 66,17.8 66.4,19.4 65,18.6 63.6,19.4 64,17.8 62.8,16.7 64.4,16.5" />
      <!-- Estrella 7 -->
      <polygon points="74,20 74.6,21.5 76.2,21.7 75,22.8 75.4,24.4 74,23.6 72.6,24.4 73,22.8 71.8,21.7 73.4,21.5" />
      <!-- Estrella 8 -->
      <polygon points="81,26 81.6,27.5 83.2,27.7 82,28.8 82.4,30.4 81,29.6 79.6,30.4 80,28.8 78.8,27.7 80.4,27.5" />
    </g>

    <!-- Silueta del mapa de Venezuela en Amarillo Oro, con contorno blanco sutil -->
    <path d="M29.5,29.5 C29.0,28.0 28.1,28.5 27.5,29.0 C27.0,30.5 28.5,32.0 30.0,32.2 C31.5,31.5 32.5,30.0 31.8,28.5 C31.0,27.5 30.0,28.0 29.5,29.5 Z
             M32.0,32.0 C33.0,31.0 34.5,28.5 35.8,25.8 C36.5,24.5 38.0,21.5 39.5,22.2 C40.5,22.8 40.0,24.5 41.5,24.8 C42.5,25.0 43.5,23.8 44.5,23.8 C45.5,23.8 46.5,24.5 47.5,24.0 C48.5,23.5 49.0,22.0 50.5,22.5 C51.5,23.0 52.0,24.5 53.0,24.2 C54.0,24.0 54.5,22.8 55.5,22.8 C56.5,22.8 57.0,24.0 58.2,23.5 C59.5,23.0 60.5,23.5 61.5,24.2 C62.5,25.0 64.0,24.5 65.2,25.2 C66.5,26.0 67.5,25.5 68.8,26.5 C70.0,27.5 71.5,27.0 72.8,28.5 C74.0,30.0 75.0,31.5 74.5,33.5 C74.0,35.5 72.0,36.5 71.0,38.5 C70.0,40.5 68.0,42.5 66.5,44.5 C65.0,46.5 63.0,45.5 61.8,44.0 C60.5,42.5 59.0,42.0 57.5,42.5 C56.0,43.0 54.5,44.5 53.0,43.5 C51.5,42.5 50.0,41.0 48.5,41.5 C47.0,42.0 45.5,43.5 44.0,42.0 C42.5,40.5 41.0,39.5 39.5,38.5 C38.0,37.5 36.5,36.5 35.0,36.5 C33.5,36.5 32.5,35.0 32.0,32.0 Z" 
          fill="#fdc82f" 
          stroke="#ffffff" 
          stroke-width="0.8" 
          stroke-linejoin="round" />

    <!-- Corazón Rojo en el centro que simboliza la salud y el amor al país -->
    <path d="M 50,39 C 43,30, 27,33, 27,47 C 27,61, 50,75, 50,75 C 50,75, 73,61, 73,47 C 73,33, 57,30, 50,39 Z" 
          fill="#cf142b" 
          stroke="#ffffff" 
          stroke-width="1.2"
          stroke-linejoin="round" />

    <!-- Manos Protectoras que sostienen con cuidado -->
    <!-- Mano Izquierda -->
    <path d="M 21,41 C 19,45, 23,54, 28,60 C 33,66, 41,71, 47,72 C 48,72, 49,71, 48,70 C 45,68, 40,63, 35,55 C 32,50, 29,45, 29,45 C 29,45, 27,41, 25,40 C 23,39, 22,39, 21,41 Z"
          fill="#e19754" />
    <path d="M 22,42 C 20,46, 24,53, 29,59 C 34,65, 41,69, 46,70 C 47,70, 48,69, 47,68 C 44,66, 39,61, 35,54 C 32,49, 30,45, 30,45 C 30,45, 28,42, 26,41 C 24,40, 23,40, 22,42 Z"
          fill="#f7b778" />

    <!-- Mano Derecha -->
    <path d="M 79,41 C 81,45, 77,54, 72,60 C 67,66, 59,71, 53,72 C 52,72, 51,71, 52,70 C 55,68, 60,63, 65,55 C 68,50, 71,45, 71,45 C 71,45, 73,41, 75,40 C 77,39, 78,39, 79,41 Z"
          fill="#c97e3a" />
    <path d="M 78,42 C 80,46, 76,53, 71,59 C 66,65, 59,69, 54,70 C 53,70, 52,69, 53,68 C 56,66, 61,61, 65,54 C 68,49, 70,45, 70,45 C 70,45, 72,42, 74,41 C 76,40, 77,40, 78,42 Z"
          fill="#e19754" />
  </g>
</svg>
